# xmcd CD database file
#
# Track frame offsets:
#	150
#	14304
#	46396
#	62477
#	73373
#	95001
#	107350
#	128247
#	138508
#	166472
#
# Disc length: 2511 seconds
#
# Revision: 1
# Processed by: cddbd v1.5PL3 Copyright (c) Steve Scherf et al.
# Submitted via: CDex 1.51
#
DISCID=8b09cd0a
DTITLE=Burtschi Brothers - Live in Oklahoma [CD2]
DYEAR=2003
DGENRE=Country
TTITLE0=Go Easy on Me
TTITLE1=Tulsa/Take me Back to Tulsa
TTITLE2=Ridin' the Road
TTITLE3=Proud Woman
TTITLE4=Sittin' on Top of the World
TTITLE5=Wishing Well
TTITLE6=Pontotoc County Line
TTITLE7=Soft Way
TTITLE8=JC Patrilla
TTITLE9=Nightlife
EXTD=YEAR: 2003
EXTT0=
EXTT1=
EXTT2=
EXTT3=
EXTT4=
EXTT5=
EXTT6=
EXTT7=
EXTT8=
EXTT9=
PLAYORDER=
